Coordinates
version=1
nRows=6
nColumns=60
inDegrees=yes

Units are S.I. units (second, meters, Newtons, ...)
If the header above contains a line with 'inDegrees', this indicates whether rotational values are in degrees (yes) or radians (no).

endheader
time	pelvis_tilt	pelvis_list	pelvis_rotation	pelvis_tx	pelvis_ty	pelvis_tz	hip_flexion_r	hip_adduction_r	hip_rotation_r	knee_angle_r_beta	knee_angle_r	ankle_angle_r	subtalar_angle_r	mtp_angle_r	hip_flexion_l	hip_adduction_l	hip_rotation_l	knee_angle_l_beta	knee_angle_l	ankle_angle_l	subtalar_angle_l	mtp_angle_l	L5_S1_Flex_Ext	L5_S1_Lat_Bending	L5_S1_axial_rotation	L4_L5_Flex_Ext	L4_L5_Lat_Bending	L4_L5_axial_rotation	L3_L4_Flex_Ext	L3_L4_Lat_Bending	L3_L4_axial_rotation	L2_L3_Flex_Ext	L2_L3_Lat_Bending	L2_L3_axial_rotation	L1_L2_Flex_Ext	L1_L2_Lat_Bending	L1_L2_axial_rotation	L1_T12_Flex_Ext	L1_T12_Lat_Bending	L1_T12_axial_rotation	Abs_r3	Abs_r2	Abs_r1	Abs_t1	Abs_t2	arm_flex_r	arm_add_r	arm_rot_r	elbow_flex_r	pro_sup_r	wrist_flex_r	wrist_dev_r	arm_flex_l	arm_add_l	arm_rot_l	elbow_flex_l	pro_sup_l	wrist_flex_l	wrist_dev_l
    128.67000000	     -0.32326365	      3.47441866	     91.25521739	      0.39747248	      0.94000754	      0.28494835	      5.73493230	     -5.69148197	      1.20904616	      0.22324051	    -12.79073901	      5.48845850	      0.00000000	      0.00000000	      5.59060721	     -4.49178164	     -2.39660850	      0.18970307	    -10.86918510	      5.57831216	      0.00000000	      0.00000000	     -6.42344940	     -0.09989442	     -0.16973543	    -11.92898789	     -0.13285958	     -0.18034389	    -10.55308503	     -0.24288329	     -0.18034389	     -7.34136032	     -0.24288329	     -0.14851850	     -5.96481512	     -0.20370470	     -0.13791003	     -3.67035899	     -0.15473645	     -0.12730157	    -45.88205674	     -1.13002564	     -0.94401752	      0.00000000	      0.00000000	     48.36668315	    -27.99905214	      8.90591301	     85.22710183	     66.94645163	      1.27395544	     26.46318431	     50.07773705	    -25.55275960	     14.38667417	     78.85411189	     57.51066107	      4.56546881	     19.48927092
    128.68000000	     -0.34552728	      3.86817094	     91.25195787	      0.39728639	      0.94042952	      0.28284346	      5.15135963	     -5.72302660	      1.11277771	      0.22292167	    -12.77247109	      5.71853731	      0.00000000	      0.00000000	      5.02607137	     -4.47238812	     -2.48546948	      0.19032771	    -10.90497464	      5.82765732	      0.00000000	      0.00000000	     -6.44118670	     -0.10220484	     -0.17201759	    -11.96192783	     -0.13593244	     -0.18276869	    -10.58222563	     -0.24850085	     -0.18276869	     -7.36163228	     -0.24850085	     -0.15051539	     -5.98128597	     -0.20841611	     -0.13976429	     -3.68049408	     -0.15831530	     -0.12901319	    -46.00875250	     -1.15616158	     -0.95671023	      0.00000000	      0.00000000	     46.19749782	    -27.88583795	      7.70697828	     87.03845906	     67.66143851	      1.20216925	     26.47529865	     47.83532935	    -25.56546334	     13.22320174	     80.71921880	     57.93055882	      4.46427965	     19.40835173
    128.69000000	     -0.33889648	      4.09585138	     91.20209207	      0.39721367	      0.94058022	      0.28099859	      4.84919335	     -5.71395765	      1.13645538	      0.22502077	    -12.89274014	      5.83631949	      0.00000000	      0.00000000	      4.72889253	     -4.49444985	     -2.48151080	      0.19348364	    -11.08579617	      5.94948809	      0.00000000	      0.00000000	     -6.42806006	     -0.10493350	     -0.15599585	    -11.93755034	     -0.13956156	     -0.16574559	    -10.56065988	     -0.25513531	     -0.16574559	     -7.34662985	     -0.25513531	     -0.13649637	     -5.96909657	     -0.21398039	     -0.12674663	     -3.67299352	     -0.16254199	     -0.11699689	    -45.91499023	     -1.18702874	     -0.86760211	      0.00000000	      0.00000000	     43.97759182	    -27.64787267	      6.31957212	     88.67583184	     69.91283632	      0.78684908	     26.76057481	     45.67029245	    -25.32405972	     12.00436658	     82.20501421	     60.57981852	      3.78378576	     19.21468369
    128.70000000	     -0.37680528	      4.56489927	     91.18836023	      0.39699968	      0.94106984	      0.27893506	      4.16158085	     -5.77192724	      1.00495303	      0.22396477	    -12.83223625	      6.14332108	      0.00000000	      0.00000000	      4.10141801	     -4.45446846	     -2.62981123	      0.19456156	    -11.14755642	      6.26913413	      0.00000000	      0.00000000	     -6.45248978	     -0.10892165	     -0.16596630	    -11.98291877	     -0.14486579	     -0.17633919	    -10.60079546	     -0.26483210	     -0.17633919	     -7.37455057	     -0.26483210	     -0.14522051	     -5.99178201	     -0.22211303	     -0.13484762	     -3.68695266	     -0.16871963	     -0.12447472	    -46.08948926	     -1.23214348	     -0.92305476	      0.00000000	      0.00000000	     41.95016179	    -27.44267523	      5.37955251	     90.15536430	     69.96101969	      0.71755637	     26.76380565	     43.55169936	    -25.31851330	     11.02984915	     83.82698945	     60.66952063	      3.67691465	     19.16215286
    128.71000000	     -0.39191782	      4.97934898	     91.18356904	      0.39690834	      0.94152028	      0.27711795	      3.59290139	     -5.77655998	      0.97162027	      0.22436357	    -12.85508571	      6.29312941	      0.00000000	      0.00000000	      3.59068928	     -4.44785688	     -2.66825799	      0.19703026	    -11.28900227	      6.42311961	      0.00000000	      0.00000000	     -6.48041937	     -0.11242434	     -0.16684442	    -12.03478680	     -0.14952437	     -0.17727219	    -10.64668098	     -0.27334854	     -0.17727219	     -7.40647129	     -0.27334854	     -0.14598887	     -6.01771742	     -0.22925571	     -0.13556109	     -3.70291163	     -0.17414530	     -0.12513331	    -46.28898749	     -1.27176662	     -0.92793859	      0.00000000	      0.00000000	     39.89593546	    -27.24727848	      4.32648788	     91.71927044	     70.76879468	      0.58420473	     26.75197138	     41.48678785	    -25.23693422	      9.96350212	     85.44005505	     61.51917795	      3.48122547	     19.05488912
    128.72000000	     -0.38773458	      5.32866172	     91.16699364	      0.39684702	      0.94181905	      0.27522209	      3.05714908	     -5.77767487	      0.78606479	      0.22324960	    -12.79125992	      6.51986095	      0.00000000	      0.00000000	      3.10963734	     -4.47340396	     -2.79837225	      0.19839639	    -11.36727584	      6.65697396	      0.00000000	      0.00000000	     -6.47840538	     -0.11550382	     -0.16587085	    -12.03104662	     -0.15362008	     -0.17623778	    -10.64337219	     -0.28083599	     -0.17623778	     -7.40416950	     -0.28083599	     -0.14513700	     -6.01584723	     -0.23553539	     -0.13477007	     -3.70176083	     -0.17891542	     -0.12440314	    -46.27460176	     -1.30660231	     -0.92252392	      0.00000000	      0.00000000	     37.93122488	    -27.03133461	      3.49622438	     92.85623840	     71.50051878	      0.45092563	     26.73970834	     39.49165823	    -25.11038314	      9.13497323	     86.66788078	     62.34733981	      3.30851301	     18.95499371
